<?xml version="1.0" standalone="no"?>
<!DOCTYPE svg PUBLIC "-//W3C//DTD SVG 20010904//EN"
 "http://www.w3.org/TR/2001/REC-SVG-20010904/DTD/svg10.dtd">
<svg version="1.0" xmlns="http://www.w3.org/2000/svg"
 width="640.000000pt" height="640.000000pt" viewBox="0 0 640.000000 640.000000"
 preserveAspectRatio="xMidYMid meet">
<metadata>
Created by potrace 1.14, written by Peter Selinger 2001-2017
</metadata>
<g transform="translate(0.000000,640.000000) scale(0.100000,-0.100000)"
fill="#000000" stroke="none">
<path d="M3620 5390 c-36 -37 -246 -252 -466 -476 -221 -225 -454 -463 -519
-529 -64 -66 -204 -209 -312 -318 -118 -120 -197 -208 -202 -225 -10 -42 -7
-488 4 -484 9 3 191 176 528 502 65 63 164 159 220 212 l102 97 3 -361 2 -361
37 -46 c21 -25 42 -51 48 -57 5 -6 93 -112 195 -234 l185 -223 3 871 2 870
125 120 125 120 0 296 c0 163 -3 296 -7 295 -5 0 -37 -31 -73 -69z"/>
<path d="M3790 5335 l0 -115 59 -62 c33 -35 89 -94 126 -133 37 -38 119 -125
183 -192 63 -68 118 -123 121 -123 3 0 6 49 6 110 l-1 109 -68 73 c-132 140
-361 383 -393 416 l-33 33 0 -116z"/>
<path d="M3790 5040 l0 -125 73 -77 c39 -42 128 -136 197 -209 174 -184 217
-229 221 -229 2 0 4 54 3 120 -1 132 3 121 -79 205 -17 17 -265 280 -377 400
l-38 40 0 -125z"/>
<path d="M3791 4730 l0 -125 92 -96 c51 -52 132 -138 181 -190 196 -208 216
-228 219 -221 3 6 1 176 -2 224 0 9 -11 28 -23 41 -53 56 -290 307 -375 396
l-92 96 0 -125z"/>
<path d="M3790 4422 l0 -118 46 -50 c25 -27 103 -110 173 -184 71 -74 159
-168 196 -207 37 -40 71 -73 74 -73 9 0 6 238 -3 247 -4 5 -60 64 -124 132
-170 180 -187 198 -274 289 -43 45 -81 82 -83 82 -3 0 -5 -53 -5 -118z"/>
<path d="M3790 4120 l0 -125 63 -66 c64 -67 287 -304 375 -396 27 -29 51 -53
53 -53 2 0 4 53 4 119 l0 118 -44 49 c-24 27 -107 117 -186 199 -78 83 -170
179 -203 215 l-62 65 0 -125z"/>
<path d="M3790 3813 l0 -123 68 -71 c37 -40 81 -86 97 -104 17 -17 95 -100
174 -183 79 -84 146 -152 150 -152 10 0 6 223 -5 241 -8 16 -187 206 -396 423
l-87 91 -1 -122z"/>
<path d="M2554 3626 c-18 -22 -180 -195 -341 -365 l-73 -76 0 -70 c-1 -68 -1
-912 0 -927 0 -5 99 -8 220 -8 l220 0 0 735 c0 404 -1 735 -3 735 -2 0 -12
-11 -23 -24z"/>
<path d="M3790 3511 l0 -124 47 -51 c49 -53 256 -274 378 -402 l70 -74 -1 125
-1 125 -34 37 c-19 20 -56 60 -84 88 -52 54 -230 244 -322 343 l-53 57 0 -124z"/>
<path d="M3790 3200 l0 -125 83 -85 c73 -77 295 -311 376 -399 17 -18 31 -32
32 -30 1 2 2 54 3 114 2 112 -3 133 -42 174 -9 9 -82 86 -162 171 -80 84 -177
187 -217 229 l-72 76 -1 -125z"/>
<path d="M3790 2893 l0 -120 36 -39 c20 -21 71 -75 113 -120 42 -44 134 -142
205 -217 71 -75 132 -137 135 -137 3 0 6 54 6 120 l-1 120 -59 61 c-33 34 -67
69 -75 79 -8 9 -82 87 -165 174 -82 87 -152 161 -155 164 -3 4 -13 13 -22 21
-17 13 -18 6 -18 -106z"/>
<path d="M2980 2487 l0 -307 232 0 c219 0 230 1 216 18 -8 9 -109 143 -223
297 -114 154 -211 284 -216 290 -5 5 -9 -120 -9 -298z"/>
<path d="M3790 2448 l0 -268 252 0 252 0 -35 37 c-48 52 -67 73 -220 234 -75
79 -161 171 -192 204 l-57 60 0 -267z"/>
<path d="M753 1673 c-18 -9 -33 -20 -33 -24 0 -16 19 -18 45 -5 26 14 48 12
70 -5 6 -4 17 -4 24 0 9 6 3 14 -22 30 -40 25 -42 25 -84 4z"/>
<path d="M5 1622 c-3 -3 -5 -53 -5 -112 l0 -106 33 1 32 1 1 72 c0 39 3 74 5
76 3 3 31 -28 63 -69 32 -40 63 -75 69 -78 7 -2 32 -3 57 -2 l45 1 3 107 c1
59 -1 108 -5 108 -58 9 -58 9 -59 -68 0 -40 -2 -75 -5 -77 -3 -3 -31 28 -63
69 -32 41 -62 75 -65 76 -29 4 -102 5 -106 1z"/>
<path d="M343 1623 c-9 -3 -13 -35 -13 -112 l0 -108 33 1 c30 1 32 4 37 41 l5
39 68 2 c43 1 68 -3 69 -10 0 -6 2 -20 3 -31 1 -11 3 -25 4 -30 2 -18 60 -14
64 4 4 14 2 184 -2 202 -1 5 -13 6 -57 0 -5 0 -9 -14 -8 -30 1 -15 -1 -33 -5
-38 -3 -5 -36 -9 -73 -9 l-68 1 0 40 c0 34 -3 40 -23 41 -12 1 -28 -1 -34 -3z"/>
<path d="M724 1567 c-19 -32 -34 -60 -34 -63 0 -2 -11 -22 -25 -45 -14 -22
-23 -44 -20 -49 9 -15 64 -5 79 15 18 25 134 23 154 -3 11 -14 82 -27 82 -14
0 10 -112 212 -118 213 -4 1 -24 2 -45 3 -37 1 -40 -2 -73 -57z m99 -42 l17
-35 -40 0 -40 0 17 35 c9 19 20 35 23 35 3 0 14 -16 23 -35z"/>
<path d="M974 1621 c-2 -2 -4 -15 -4 -28 0 -21 4 -23 49 -23 l49 0 0 -62 c1
-111 -1 -104 35 -104 l32 1 0 80 0 80 48 3 c46 3 48 5 45 30 l-3 27 -123 0
c-68 0 -126 -2 -128 -4z"/>
<path d="M1392 1620 c-4 -3 -7 -15 -8 -27 -1 -21 4 -23 48 -23 54 0 52 5 48
-115 l-1 -50 35 -1 36 -1 0 83 0 84 44 0 c46 0 68 22 46 44 -11 11 -235 16
-248 6z"/>
<path d="M1680 1621 c-12 -5 -15 -25 -14 -101 1 -122 -1 -116 33 -116 35 0 37
6 36 99 l-1 67 57 0 c36 0 61 -5 68 -14 17 -20 -3 -30 -59 -32 -25 -1 -47 -2
-50 -3 -3 -1 9 -13 25 -28 17 -14 44 -40 62 -56 21 -20 44 -31 68 -32 19 -2
35 0 35 3 0 3 -17 21 -37 38 l-38 33 26 10 c29 11 39 29 39 70 0 50 -27 63
-137 66 -54 1 -105 -1 -113 -4z"/>
<path d="M1971 1615 c-4 -5 -7 -48 -6 -94 1 -112 10 -119 141 -119 129 1 134
6 134 131 l0 92 -30 0 c-35 1 -33 6 -35 -71 -3 -90 -4 -91 -72 -89 -32 1 -62
3 -66 4 -5 0 -8 22 -7 49 4 101 2 107 -26 107 -14 0 -29 -4 -33 -10z"/>
<path d="M2271 1621 c-7 -5 -9 -153 -2 -207 0 -7 15 -11 31 -10 l30 1 0 80 1
80 20 -25 c12 -14 38 -45 58 -69 55 -67 55 -67 112 -66 l53 0 0 108 c1 59 -2
108 -6 108 -53 8 -53 8 -58 -76 l-5 -80 -60 75 c-32 41 -60 76 -61 78 -3 6
-104 8 -113 3z"/>
<path d="M2643 1622 c-36 -5 -46 -28 -46 -108 -1 -104 5 -109 138 -109 124 0
136 7 139 81 l1 49 -70 0 c-63 0 -70 -2 -70 -20 0 -14 7 -20 25 -21 55 -2 59
-4 53 -19 -4 -13 -20 -15 -81 -13 -85 3 -77 -6 -73 83 1 25 1 25 105 25 106 0
121 6 107 40 -5 12 -26 15 -106 15 -55 0 -110 -1 -122 -3z"/>
<path d="M3078 1620 c-33 -8 -44 -39 -42 -115 2 -95 8 -99 146 -100 l113 0 2
27 2 27 -94 -1 c-51 0 -98 2 -103 6 -7 4 -9 62 -3 99 0 4 45 7 100 7 98 0 99
0 99 25 0 14 -6 25 -12 26 -42 4 -189 3 -208 -1z"/>
<path d="M3347 1615 c-20 -9 -22 -19 -25 -96 -4 -111 -1 -113 131 -116 89 -1
144 9 148 26 1 3 3 41 5 83 3 105 -5 112 -137 113 -55 1 -110 -4 -122 -10z
m194 -57 c1 -7 2 -31 3 -53 1 -38 0 -40 -34 -45 -19 -3 -56 -3 -82 -2 l-48 4
0 54 0 54 80 0 c57 0 80 -4 81 -12z"/>
<path d="M3643 1623 c-9 -3 -13 -35 -13 -111 l0 -107 30 -1 c17 -1 31 1 31 5
1 3 3 38 4 76 1 39 3 72 4 73 0 2 30 -32 65 -75 l64 -79 48 2 c27 1 52 2 56 3
9 1 10 209 1 214 -5 3 -20 3 -35 0 -26 -5 -27 -8 -30 -80 l-3 -74 -37 48 c-76
98 -85 106 -130 108 -24 1 -49 0 -55 -2z"/>
<path d="M4004 1622 c-42 -8 -58 -67 -29 -108 12 -18 26 -21 92 -23 43 -1 82
-6 87 -11 19 -19 -9 -28 -91 -29 -47 -1 -87 -2 -89 -3 -1 -2 -4 -12 -6 -23 -3
-19 2 -20 113 -20 134 0 149 7 149 66 0 54 -25 69 -117 69 -66 0 -96 11 -78
28 3 4 45 7 93 8 48 1 90 2 94 3 8 1 4 28 -5 38 -8 7 -176 11 -213 5z"/>
<path d="M4254 1621 c-2 -2 -4 -15 -4 -28 0 -21 4 -23 48 -23 l48 0 0 -82 -1
-81 33 -3 c36 -3 34 -7 35 99 l0 67 36 1 c20 1 42 1 48 0 12 -2 15 48 3 50
-15 4 -242 3 -246 0z"/>
<path d="M4528 1545 c-4 -121 1 -140 37 -140 l30 0 2 70 c0 39 2 76 2 83 1 8
18 12 50 12 59 0 81 -7 81 -26 0 -16 0 -16 -63 -18 -26 -1 -48 -4 -49 -6 -1
-3 23 -29 54 -58 48 -45 64 -54 100 -57 l43 -4 -41 38 -41 37 28 17 c25 14 29
22 29 61 0 60 -16 68 -151 71 l-108 2 -3 -82z"/>
<path d="M4841 1620 c-9 -5 -13 -33 -12 -96 1 -118 6 -122 140 -120 132 1 135
4 136 128 0 101 4 94 -58 89 -9 -1 -12 -20 -11 -68 1 -38 -1 -73 -3 -79 -4
-10 -92 -16 -123 -8 -12 3 -15 18 -13 66 1 35 0 70 -3 78 -4 17 -33 23 -53 10z"/>
<path d="M5185 1622 c-49 -6 -55 -17 -55 -107 0 -62 4 -86 16 -95 16 -15 214
-22 234 -10 7 4 10 16 8 26 -3 17 -14 19 -98 20 l-95 0 -3 57 -3 57 101 0 100
0 0 28 0 27 -88 0 c-48 0 -100 -2 -117 -3z"/>
<path d="M5414 1621 c-2 -2 -4 -15 -4 -28 0 -19 5 -24 23 -23 72 6 72 5 70
-62 -3 -95 1 -107 38 -104 l32 2 -1 82 c-1 90 -4 87 68 83 19 -2 26 3 27 18 1
11 -4 24 -10 28 -13 8 -235 12 -243 4z"/>
<path d="M5693 1621 c-4 -3 -7 -15 -7 -26 1 -11 2 -59 3 -106 l1 -86 33 1 32
1 1 100 c1 55 -2 105 -5 110 -7 11 -45 15 -58 6z"/>
<path d="M5813 1616 c-29 -15 -33 -27 -33 -102 0 -106 4 -109 145 -109 141 0
145 3 145 110 0 101 -11 109 -140 110 -55 1 -107 -3 -117 -9z m193 -99 c1 -57
-8 -64 -85 -61 -77 4 -80 6 -76 61 1 26 3 49 4 51 0 2 36 2 79 0 l77 -3 1 -48z"/>
<path d="M6103 1623 c-9 -3 -13 -35 -13 -112 l0 -108 33 1 32 1 1 70 c1 39 2
74 3 78 1 5 30 -26 65 -70 l63 -79 54 1 54 0 0 109 c0 106 -1 109 -23 111 -32
2 -40 -13 -38 -75 1 -30 0 -61 -2 -67 -2 -7 -29 17 -59 55 -30 37 -59 71 -63
76 -9 9 -87 16 -107 9z"/>
<path d="M770 1369 c0 -17 26 -29 48 -22 6 3 12 13 12 23 0 13 -7 17 -30 16
-21 0 -30 -6 -30 -17z"/>
<path d="M1706 1235 c-11 -8 -17 -17 -14 -21 8 -8 48 14 48 26 0 14 -12 12
-34 -5z"/>
<path d="M1629 1203 c-13 -15 -11 -16 10 -10 13 3 33 2 43 -4 12 -6 18 -6 18
0 0 11 -32 31 -48 31 -5 0 -16 -8 -23 -17z"/>
<path d="M3472 1207 c-8 -10 -2 -13 29 -13 35 -1 37 0 22 12 -23 17 -38 17
-51 1z"/>
<path d="M2154 1171 c-11 -12 -2 -23 16 -18 19 5 20 0 20 -84 0 -115 18 -117
22 -1 3 75 5 87 20 84 9 -1 19 2 23 8 3 5 -2 10 -12 11 -10 0 -33 1 -51 2 -19
1 -36 0 -38 -2z"/>
<path d="M2619 1166 c-34 -17 -64 -76 -55 -110 18 -74 109 -101 166 -48 16 15
32 38 34 52 4 31 -28 97 -51 104 -43 13 -72 13 -94 2z m97 -27 c8 -6 18 -26
23 -43 17 -66 -43 -117 -106 -91 -59 25 -69 80 -24 125 22 23 35 28 61 25 18
-2 38 -10 46 -16z"/>
<path d="M3466 1171 c-52 -11 -89 -87 -65 -134 29 -57 110 -76 157 -37 84 70
17 194 -92 171z m84 -36 c27 -24 33 -61 16 -94 -46 -88 -187 -24 -144 66 24
51 88 64 128 28z"/>
<path d="M3958 1157 c-57 -39 -63 -105 -12 -152 34 -31 77 -36 117 -12 37 22
47 35 47 60 0 14 -9 17 -60 17 -33 0 -60 -4 -60 -10 0 -5 23 -10 50 -10 47 0
50 -2 41 -19 -16 -29 -62 -41 -98 -26 -59 25 -69 80 -23 126 24 24 36 29 61
25 17 -2 39 -12 48 -20 20 -18 31 -20 31 -6 0 15 -45 41 -79 45 -19 3 -41 -4
-63 -18z"/>
<path d="M4364 1161 c-34 -21 -56 -64 -51 -100 2 -14 16 -37 32 -53 22 -22 37
-28 69 -28 23 0 48 6 57 13 23 18 50 63 42 70 -10 11 -121 8 -128 -3 -4 -6 15
-10 50 -10 65 0 70 -14 16 -42 -39 -19 -82 -9 -106 25 -23 33 -18 66 15 99 26
25 36 29 62 24 18 -3 39 -13 48 -21 19 -17 30 -19 30 -5 0 14 -41 38 -75 44
-20 4 -41 -1 -61 -13z"/>
<path d="M1298 1163 c-9 -22 -1 -177 9 -180 6 -2 10 4 9 14 -3 19 13 63 23 63
3 0 19 -18 35 -40 17 -22 36 -40 44 -40 8 0 -1 17 -22 44 -20 23 -36 47 -36
52 0 5 14 26 31 47 17 21 28 41 25 45 -7 6 -33 -19 -74 -72 -23 -30 -25 -27
-24 37 1 33 -11 50 -20 30z"/>
<path d="M1500 1075 c0 -57 4 -95 10 -95 6 0 10 38 10 95 0 57 -4 95 -10 95
-6 0 -10 -38 -10 -95z"/>
<path d="M1610 1075 l0 -95 50 0 c29 0 50 5 50 11 0 6 -15 9 -37 7 -37 -3 -38
-2 -41 35 l-3 37 40 0 c23 0 41 4 41 9 0 4 -12 8 -27 9 -53 0 -54 1 -51 35 3
29 5 32 35 29 17 -2 34 1 38 7 4 7 -11 11 -44 11 l-51 0 0 -95z"/>
<path d="M1800 1075 c0 -116 18 -128 22 -15 l3 81 53 -81 c29 -44 57 -80 63
-80 5 0 9 42 9 95 0 57 -4 95 -10 95 -6 0 -10 -33 -10 -77 l0 -78 -22 35 c-13
19 -26 37 -30 38 -5 2 -8 8 -8 14 0 18 -41 68 -56 68 -11 0 -14 -19 -14 -95z"/>
<path d="M2381 1148 c-5 -13 -23 -56 -40 -95 -16 -40 -26 -73 -20 -73 5 0 15
12 22 28 15 35 18 37 63 37 38 -1 49 -10 67 -60 3 -5 8 -7 12 -3 11 10 -67
188 -82 188 -8 0 -18 -10 -22 -22z m59 -78 c0 -3 -16 -7 -35 -8 -40 -3 -42 2
-19 48 l17 33 18 -34 c10 -19 18 -36 19 -39z"/>
<path d="M2970 1075 c0 -57 4 -95 10 -95 6 0 10 13 10 29 0 16 6 34 14 40 11
10 20 4 43 -28 15 -22 34 -41 41 -41 15 0 10 10 -31 62 l-29 37 37 45 c23 29
32 46 23 46 -8 0 -32 -23 -53 -52 l-40 -52 -3 52 c-5 90 -22 57 -22 -43z"/>
<path d="M3174 1081 c1 -49 4 -93 9 -97 8 -8 8 -6 10 46 2 34 3 35 50 38 l47
3 0 -45 c0 -26 5 -46 10 -46 6 0 10 38 10 95 0 57 -4 95 -10 95 -5 0 -10 -18
-10 -40 l0 -40 -50 0 -50 0 3 40 c2 26 -1 40 -8 40 -9 0 -12 -27 -11 -89z"/>
<path d="M3679 1155 c0 -8 0 -44 0 -80 0 -92 0 -95 11 -95 5 0 9 19 9 43 -1
23 -1 60 0 82 l1 40 55 -83 c31 -45 60 -82 65 -82 6 0 10 39 10 95 0 113 -18
129 -22 19 l-3 -75 -49 75 c-47 72 -75 94 -77 61z"/>
<path d="M4599 1158 c-5 -76 0 -173 10 -176 8 -3 11 25 11 92 0 57 -4 96 -10
96 -5 0 -10 -6 -11 -12z"/>
<path d="M4759 1143 c-6 -15 -16 -41 -24 -58 -32 -70 -43 -105 -34 -105 5 0
16 15 25 33 15 31 20 34 57 32 40 -2 67 -23 67 -52 0 -7 6 -13 14 -13 10 0 3
26 -27 95 -22 53 -46 95 -54 95 -7 0 -18 -12 -24 -27z m61 -78 c0 -2 -16 -3
-36 -3 -29 0 -34 3 -29 17 4 9 12 29 17 44 l11 29 18 -42 c11 -23 19 -43 19
-45z"/>
<path d="M4950 1075 c0 -117 18 -127 22 -13 l3 82 54 -82 c51 -78 70 -97 72
-69 5 96 2 177 -7 177 -7 0 -11 -24 -11 -65 0 -36 -2 -67 -5 -70 -3 -3 -26 26
-52 65 -65 97 -76 94 -76 -25z"/>
<path d="M2399 968 c-6 -25 -6 -38 1 -38 12 0 20 29 10 35 -6 4 -10 5 -11 3z"/>
</g>
</svg>
