<?xml version="1.0" standalone="no"?>
<!DOCTYPE svg PUBLIC "-//W3C//DTD SVG 20010904//EN"
 "http://www.w3.org/TR/2001/REC-SVG-20010904/DTD/svg10.dtd">
<svg version="1.0" xmlns="http://www.w3.org/2000/svg"
 width="348.000000pt" height="348.000000pt" viewBox="0 0 348.000000 348.000000"
 preserveAspectRatio="xMidYMid meet">
<metadata>
Created by potrace 1.11, written by Peter Selinger 2001-2013
</metadata>
<g transform="translate(0.000000,348.000000) scale(0.100000,-0.100000)"
fill="#000000" stroke="none">
<path d="M2 1743 l3 -908 80 0 80 0 2 820 c1 451 2 827 2 836 1 13 26 15 200
15 110 -1 203 -4 206 -8 4 -4 7 -101 7 -215 -1 -337 2 -306 -30 -324 -27 -16
-322 -217 -332 -226 -3 -3 -5 -159 -6 -349 l-1 -344 31 -1 c29 0 2947 0 3088
1 l68 0 39 80 c22 44 37 81 33 83 -4 2 -618 3 -1364 3 l-1357 -1 -3 210 c-2
116 -1 272 2 348 l5 138 95 64 c52 36 98 65 102 65 4 0 161 -102 349 -226
l342 -226 124 -2 c68 0 122 2 121 6 -3 6 -670 470 -885 615 l-52 35 -97 -67
c-53 -36 -98 -65 -100 -62 -2 2 -4 126 -5 275 l0 272 -375 0 -374 0 2 -907z
m580 -225 c0 -139 -1 -266 -1 -283 l-1 -30 -102 0 c-57 0 -105 3 -108 7 -4 5
-5 389 -1 420 1 9 205 147 210 142 2 -1 3 -117 3 -256z"/>
<path d="M989 1478 c0 -18 -1 -73 -1 -123 l-2 -90 27 -3 27 -3 0 88 0 88 56
-87 c49 -78 59 -88 85 -88 l29 0 0 126 0 125 -27 -3 c-28 -3 -28 -3 -27 -80 0
-42 -3 -75 -7 -72 -4 2 -28 38 -54 79 -41 66 -50 75 -76 75 -26 0 -29 -3 -30
-32z"/>
<path d="M1269 1475 c0 -19 0 -64 0 -100 0 -120 -1 -115 26 -115 26 0 30 12
27 78 -1 22 2 23 51 20 l52 -3 -1 -47 c0 -46 1 -48 28 -48 l28 0 0 126 0 125
-27 -3 c-24 -3 -28 -7 -29 -43 -1 -22 -2 -43 -3 -47 0 -5 -24 -8 -51 -8 l-50
0 3 50 c3 49 2 50 -25 50 -25 0 -28 -4 -29 -35z"/>
<path d="M1591 1483 c-6 -16 -26 -72 -45 -125 l-35 -98 30 0 c22 0 32 6 39 25
8 22 16 25 55 25 39 0 45 -3 51 -25 5 -19 13 -25 35 -25 16 0 29 3 29 6 0 3
-19 60 -42 125 -42 118 -43 119 -74 119 -25 0 -34 -6 -43 -27z m69 -120 c0 -2
-13 -3 -30 -3 -31 0 -31 0 -7 64 l11 29 13 -44 c7 -24 13 -45 13 -46z"/>
<path d="M1733 1491 c-1 -16 6 -20 35 -23 l37 -3 0 -100 0 -100 28 -3 27 -3 0
105 0 106 35 0 c28 0 35 4 35 20 0 19 -7 20 -98 20 -90 0 -98 -2 -99 -19z"/>
<path d="M2034 1493 c2 -12 13 -19 34 -21 36 -4 34 3 36 -117 l1 -90 28 -3 27
-3 0 105 0 106 35 0 c28 0 35 4 35 20 0 19 -7 20 -99 20 -89 0 -99 -2 -97 -17z"/>
<path d="M2269 1488 c0 -34 0 -201 0 -215 1 -7 12 -13 26 -13 26 0 28 3 27 63
-2 52 23 47 58 -13 21 -36 32 -46 58 -48 18 -2 32 -1 32 3 0 3 -16 29 -35 57
l-35 52 20 22 c31 32 33 62 5 90 -21 20 -34 24 -90 24 -61 0 -65 -2 -66 -22z
m110 -32 c18 -22 -4 -58 -32 -54 -16 2 -22 11 -24 36 -2 28 0 32 21 32 13 0
29 -6 35 -14z"/>
<path d="M2485 1417 c1 -51 7 -103 14 -115 25 -46 110 -55 158 -16 26 21 28
26 30 123 l3 101 -29 0 -30 0 1 -85 c1 -89 -9 -115 -43 -115 -37 0 -49 27 -49
116 l0 84 -28 0 -28 0 1 -93z"/>
<path d="M2749 1488 c0 -34 0 -201 0 -215 1 -7 12 -13 26 -13 25 0 25 1 25 88
l0 87 56 -87 c49 -78 59 -88 85 -88 l29 0 0 126 0 125 -27 -3 c-28 -3 -28 -3
-28 -80 1 -89 -1 -88 -61 10 -35 57 -45 67 -72 70 -28 3 -32 0 -33 -20z"/>
<path d="M3073 1495 c-59 -26 -86 -104 -58 -171 22 -54 111 -81 176 -54 27 12
29 16 29 71 l0 59 -54 0 c-49 0 -55 -2 -53 -20 1 -13 8 -20 22 -20 28 0 34 -7
28 -31 -4 -13 -14 -19 -32 -19 -37 1 -61 23 -68 63 -4 30 -1 40 22 62 24 25
31 27 75 21 46 -6 49 -5 47 16 0 13 -6 26 -12 30 -17 12 -88 8 -122 -7z"/>
<path d="M900 952 c0 -4 11 -8 25 -8 33 -2 33 11 0 14 -14 1 -25 -2 -25 -6z"/>
<path d="M1250 950 c0 -5 7 -7 15 -4 8 4 15 8 15 10 0 2 -7 4 -15 4 -8 0 -15
-4 -15 -10z"/>
<path d="M1955 950 c-3 -5 -2 -10 4 -10 5 0 13 5 16 10 3 6 2 10 -4 10 -5 0
-13 -4 -16 -10z"/>
<path d="M2375 951 c-3 -6 4 -9 15 -8 11 1 20 5 20 9 0 11 -28 10 -35 -1z"/>
<path d="M2620 952 c0 -4 11 -9 25 -10 14 -1 25 2 25 6 0 4 -11 9 -25 10 -14
1 -25 -2 -25 -6z"/>
<path d="M3316 951 c-3 -5 5 -8 19 -8 14 0 22 3 19 8 -3 5 -11 9 -19 9 -8 0
-16 -4 -19 -9z"/>
<path d="M1191 943 c-1 -7 -8 -13 -16 -13 -9 0 -15 -10 -16 -22 -3 -48 -4 -53
-19 -53 -9 0 -15 10 -16 25 -2 45 -4 50 -14 50 -5 0 -10 -20 -10 -45 0 -40 3
-45 26 -51 33 -8 57 14 56 53 0 15 5 31 10 34 6 4 8 13 5 20 -4 10 -6 10 -6 2z"/>
<path d="M3011 943 c-1 -6 -9 -13 -18 -15 -12 -2 -17 -13 -17 -38 -1 -50 -30
-48 -34 3 -4 41 -17 50 -24 15 -7 -43 3 -68 28 -74 33 -8 54 12 54 51 0 19 5
35 12 37 6 2 8 11 5 19 -3 7 -6 9 -6 2z"/>
<path d="M1296 929 c5 -9 -1 -10 -20 -5 -57 14 -91 -25 -60 -71 29 -45 91 -20
82 32 -3 14 -1 25 3 25 5 0 9 7 9 15 0 8 -5 15 -11 15 -5 0 -7 -5 -3 -11z
m-22 -34 c8 -21 -3 -45 -20 -45 -8 0 -17 7 -20 15 -8 21 2 45 20 45 7 0 16 -7
20 -15z"/>
<path d="M1660 930 c0 -5 -13 -7 -28 -4 -38 8 -66 -19 -57 -55 11 -42 43 -53
79 -26 13 10 17 22 14 40 -3 14 -1 25 3 25 5 0 9 7 9 15 0 8 -4 15 -10 15 -5
0 -10 -4 -10 -10z m-17 -34 c3 -8 -1 -22 -9 -33 -14 -17 -14 -17 -29 1 -11 14
-12 23 -4 33 15 17 35 17 42 -1z"/>
<path d="M449 928 c0 -2 -2 -24 -3 -50 l-3 -48 34 0 c36 0 54 23 35 42 -8 8
-8 15 -1 24 16 19 2 34 -32 34 -16 0 -29 -1 -30 -2z m41 -28 c0 -5 -4 -10 -10
-10 -5 0 -10 5 -10 10 0 6 5 10 10 10 6 0 10 -4 10 -10z m0 -40 c0 -5 -4 -10
-10 -10 -5 0 -10 5 -10 10 0 6 5 10 10 10 6 0 10 -4 10 -10z"/>
<path d="M553 913 c-3 -10 -12 -33 -19 -50 -11 -28 -11 -33 2 -33 7 0 14 5 14
10 0 14 37 13 42 -1 2 -7 9 -10 15 -8 7 3 6 19 -5 52 -15 48 -38 61 -49 30z
m27 -28 c0 -8 -4 -15 -10 -15 -5 0 -7 7 -4 15 4 8 8 15 10 15 2 0 4 -7 4 -15z"/>
<path d="M630 880 c0 -37 4 -50 15 -50 10 0 13 9 10 33 l-4 32 27 -33 c36 -43
48 -41 45 11 -2 58 -2 57 -13 57 -5 0 -10 -15 -10 -32 l0 -33 -21 33 c-31 48
-49 42 -49 -18z"/>
<path d="M783 880 c0 -35 5 -50 14 -50 8 0 13 8 11 18 -2 11 3 17 17 17 11 0
20 -6 20 -14 0 -8 6 -16 13 -18 8 -3 12 10 12 46 0 38 -4 51 -14 51 -10 0 -13
-7 -11 -21 3 -16 0 -20 -18 -17 -15 2 -21 9 -19 21 2 10 -3 17 -12 17 -11 0
-14 -12 -13 -50z"/>
<path d="M895 884 c-19 -51 -16 -61 13 -43 17 10 23 10 36 -1 9 -7 19 -10 22
-7 10 9 -28 97 -41 97 -7 0 -20 -21 -30 -46z m35 1 c0 -8 -4 -15 -10 -15 -5 0
-7 7 -4 15 4 8 8 15 10 15 2 0 4 -7 4 -15z"/>
<path d="M974 918 c2 -7 10 -30 17 -50 7 -21 15 -38 18 -38 3 0 11 15 17 33 6
17 14 40 19 50 4 10 3 17 -4 17 -7 0 -16 -10 -21 -22 l-9 -23 -7 23 c-3 12
-13 22 -21 22 -8 0 -12 -6 -9 -12z"/>
<path d="M1332 922 c-21 -14 -24 -59 -6 -77 18 -18 55 -17 61 2 3 7 -3 9 -16
6 -27 -7 -47 30 -26 47 8 7 22 10 30 6 9 -3 15 0 15 9 0 16 -36 20 -58 7z"/>
<path d="M1445 883 c0 -30 5 -48 14 -51 10 -3 12 3 9 26 -2 17 -1 29 4 26 4
-3 8 -11 8 -17 0 -7 5 -19 10 -27 8 -13 11 -12 24 5 8 11 12 24 9 29 -4 5 -1
6 5 2 6 -3 9 -15 7 -26 -2 -12 2 -20 10 -20 11 0 14 13 14 50 -1 40 -5 50 -19
50 -11 0 -21 -12 -27 -32 l-10 -33 -13 33 c-7 19 -19 32 -29 32 -14 0 -17 -9
-16 -47z"/>
<path d="M1736 915 c-32 -33 -9 -90 35 -83 13 1 23 8 21 13 -2 6 -9 9 -16 7
-7 -1 -19 5 -26 13 -17 20 6 48 32 41 12 -3 18 0 15 7 -6 19 -43 20 -61 2z"/>
<path d="M1813 880 c0 -34 4 -50 13 -50 7 0 11 8 9 20 -3 16 2 20 21 20 13 0
23 -3 23 -7 -3 -19 2 -33 11 -33 6 0 10 23 10 50 0 38 -4 50 -15 50 -10 0 -15
-7 -13 -17 2 -12 -4 -19 -19 -21 -18 -3 -21 1 -18 17 2 13 -1 21 -10 21 -9 0
-13 -15 -12 -50z"/>
<path d="M1918 913 c-2 -10 -2 -30 0 -46 5 -31 43 -47 67 -27 19 16 21 94 3
88 -7 -3 -13 -20 -13 -39 0 -50 -29 -47 -33 4 -3 38 -18 50 -24 20z"/>
<path d="M2020 880 c0 -39 4 -50 16 -50 11 0 14 7 10 31 -4 25 -2 28 9 19 8
-7 17 -20 20 -31 4 -10 13 -19 21 -19 15 0 16 3 16 50 0 46 -1 50 -12 50 -5 0
-10 -15 -10 -32 l0 -33 -21 33 c-31 48 -49 42 -49 -18z"/>
<path d="M2148 918 c-39 -32 -19 -88 31 -88 30 0 45 19 35 45 -7 17 -44 21
-44 5 0 -5 5 -10 10 -10 6 0 10 -4 10 -10 0 -13 -27 -13 -35 0 -3 6 -3 20 0
31 5 16 13 20 31 16 16 -3 24 0 24 9 0 17 -41 18 -62 2z"/>
<path d="M2260 920 c0 -5 7 -10 15 -10 11 0 15 -11 15 -41 0 -28 4 -39 12 -37
8 3 13 20 12 41 0 24 4 37 13 37 7 0 13 5 13 10 0 6 -18 10 -40 10 -22 0 -40
-4 -40 -10z"/>
<path d="M2356 914 c-31 -30 -9 -84 34 -84 24 0 50 26 50 50 0 24 -26 50 -50
50 -10 0 -26 -7 -34 -16z m57 -24 c7 -27 -18 -47 -38 -30 -11 9 -12 17 -4 31
13 25 35 24 42 -1z"/>
<path d="M2450 880 c0 -34 4 -50 13 -50 9 0 13 16 13 50 0 34 -4 50 -13 50 -9
0 -13 -16 -13 -50z"/>
<path d="M2539 914 c-12 -14 -10 -19 16 -41 l30 -25 -27 6 c-22 5 -26 3 -21
-9 3 -10 15 -15 32 -13 34 4 43 47 12 55 -23 6 -29 26 -7 21 8 -2 16 2 18 7 5
17 -38 17 -53 -1z"/>
<path d="M2610 880 c0 -49 1 -50 30 -50 35 0 40 17 8 23 l-23 4 23 8 c12 4 22
11 22 15 0 4 -10 11 -22 15 l-23 8 23 4 c32 6 27 23 -8 23 -29 0 -30 -1 -30
-50z"/>
<path d="M2720 920 c0 -5 6 -10 14 -10 9 0 13 -12 13 -37 -1 -20 4 -38 11 -41
8 -2 12 10 12 37 0 30 4 41 15 41 8 0 15 5 15 10 0 6 -18 10 -40 10 -22 0 -40
-4 -40 -10z"/>
<path d="M2810 880 c0 -50 13 -67 23 -30 9 34 44 23 38 -12 0 -5 5 -8 13 -8
10 0 14 14 13 50 0 35 -4 50 -14 50 -7 0 -13 -9 -13 -20 0 -13 -7 -20 -20 -20
-11 0 -19 3 -19 8 3 18 -2 32 -11 32 -5 0 -10 -22 -10 -50z"/>
<path d="M3043 922 c-21 -13 -26 -58 -7 -76 18 -19 55 -18 61 1 3 7 -3 9 -16
6 -27 -7 -47 30 -26 47 8 7 22 10 30 6 9 -3 15 0 15 9 0 16 -36 20 -57 7z"/>
<path d="M3153 880 c0 -35 5 -50 14 -50 8 0 13 8 11 17 -4 25 29 28 37 4 12
-38 25 -22 25 29 0 28 -4 50 -10 50 -9 0 -14 -14 -11 -32 0 -5 -10 -8 -23 -8
-19 0 -24 4 -21 20 2 12 -2 20 -10 20 -10 0 -13 -14 -12 -50z"/>
<path d="M3260 880 c0 -35 4 -50 13 -50 9 0 13 13 11 43 -2 56 -2 57 -14 57
-5 0 -10 -22 -10 -50z"/>
<path d="M3304 880 c0 -50 0 -50 33 -50 18 0 33 5 33 10 0 6 -9 10 -20 10 -11
0 -20 5 -20 10 0 6 7 10 15 10 8 0 15 5 15 10 0 6 -7 10 -15 10 -8 0 -15 5
-15 10 0 6 9 10 20 10 11 0 20 5 20 10 0 6 -15 10 -33 10 -33 0 -33 0 -33 -50z"/>
<path d="M3380 880 c0 -27 5 -50 10 -50 10 0 14 21 11 48 -3 21 8 13 24 -18
25 -48 45 -39 45 20 0 28 -4 50 -10 50 -10 0 -13 -9 -13 -42 0 -25 -4 -22 -22
12 -25 48 -45 39 -45 -20z"/>
</g>
</svg>
